<svg width="34" height="34" viewBox="0 0 34 34" fill="none" xmlns="http://www.w3.org/2000/svg">
<path d="M27.625 6.375C26.4673 7.48241 25.0905 8.33513 23.5832 8.87825C21.9937 9.15875 17.595 7.11875 15.4275 9.20125C15.0663 9.5625 14.62 9.92375 14.1525 10.285C13.1325 9.83875 11.56 9.15875 10.4125 8.5C9.265 7.84125 6.375 6.375 6.375 6.375L0 13.8125C0 13.8125 1.5725 15.9375 2.55 17.34C3.1875 18.275 3.97375 19.6988 4.48375 20.655L3.76125 21.505C3.58946 21.849 3.5279 22.2376 3.58493 22.6179C3.64197 22.9981 3.81484 23.3515 4.08 23.63C4.3869 23.8614 4.76098 23.9862 5.14534 23.9854C5.52969 23.9847 5.90328 23.8584 6.20925 23.6258C6.09564 23.7588 6.00966 23.9131 5.95632 24.0797C5.90298 24.2463 5.88335 24.4218 5.89858 24.5961C5.91382 24.7704 5.9636 24.9399 6.04503 25.0947C6.12646 25.2495 6.23791 25.3866 6.37288 25.4979C6.6978 25.6861 7.06681 25.7849 7.44232 25.7841C7.81784 25.7834 8.18645 25.6832 8.51063 25.4936C8.26783 25.7962 8.13498 26.1723 8.13382 26.5603C8.13266 26.9483 8.26327 27.3252 8.50425 27.6292C8.81744 27.738 9.15158 27.7727 9.48045 27.7307C9.80932 27.6887 10.124 27.571 10.3998 27.387C10.2617 27.7122 10.2258 28.0717 10.2967 28.4179C10.3677 28.764 10.5422 29.0803 10.7971 29.325C11.1568 29.4833 11.5506 29.5484 11.942 29.5142C12.3335 29.48 12.7101 29.3477 13.0369 29.1295L14.1334 28.1371C15.1364 29.1359 16.5198 29.7542 18.0476 29.7542L18.1772 29.7521C18.6808 29.7094 19.1633 29.5303 19.5728 29.2342C19.9824 28.9381 20.3036 28.5361 20.502 28.0713C20.8122 28.1903 21.165 28.271 21.539 28.271C22.0405 28.271 22.5059 28.1265 22.899 27.8779C24.1421 27.0555 23.8446 26.418 23.8446 26.418C24.2867 26.6083 24.7777 26.6534 25.247 26.5469C25.7163 26.4403 26.1397 26.1876 26.4562 25.8251C26.7852 25.4886 26.9926 25.0521 27.0457 24.5845C27.0988 24.1169 26.9946 23.645 26.7495 23.2432C26.7631 23.2508 26.7786 23.2545 26.7941 23.2539C27.6888 23.2539 28.4665 22.7609 28.8724 22.0341C29.0729 21.5177 29.1408 20.9593 29.0699 20.4099C28.999 19.8606 28.7915 19.3377 28.4665 18.8891L28.4729 18.8998C30.2154 18.5598 30.1516 17.6885 31.0016 16.4135C31.8054 15.3721 32.8071 14.4997 33.949 13.8465L27.625 6.375ZM27.5187 21.3775C26.5837 22.3125 25.8613 21.9087 24.2675 20.6975C22.6738 19.4862 19.5075 17.2125 19.5075 17.2125C19.6371 17.8606 19.9368 18.4237 20.3596 18.8721C21.0375 19.635 23.0563 21.3775 24.0125 22.27C24.6075 22.8225 26.1375 23.9275 25.245 24.7775C24.3525 25.6275 23.6512 24.7775 22.185 23.5875C20.7187 22.3975 17.4463 19.465 17.4463 19.465C17.4286 19.7461 17.4706 20.0277 17.5695 20.2914C17.6684 20.555 17.8219 20.7948 18.02 20.995C18.3812 21.42 20.4 23.375 21.25 24.2675C22.1 25.16 22.8437 25.6913 22.1212 26.3925C21.3987 27.0938 19.9325 25.9888 19.125 25.16C17.8713 23.9488 15.385 21.6963 15.385 21.6963L15.3829 21.8089C15.3829 22.4124 15.5911 22.9649 15.9417 23.4026C16.5537 24.2059 17.7437 25.2471 18.4662 26.0546C19.1887 26.8621 19.6137 27.5421 18.4662 28.1796C17.3187 28.8171 15.6187 27.2446 14.875 26.4796V26.4754C14.8773 26.2651 14.8016 26.0614 14.6625 25.9037C14.4078 25.6691 14.0942 25.508 13.7551 25.4376C13.4161 25.3673 13.0643 25.3903 12.7372 25.5042C12.8715 25.3837 12.979 25.2364 13.053 25.0718C13.127 24.9073 13.1659 24.7291 13.1671 24.5487C13.1683 24.3683 13.1318 24.1896 13.06 24.0241C12.9882 23.8586 12.8826 23.7099 12.75 23.5875C12.4711 23.3762 12.1306 23.262 11.7806 23.2623C11.4307 23.2627 11.0905 23.3777 10.812 23.5896C10.9528 23.4551 11.0615 23.2906 11.13 23.1084C11.1985 22.9261 11.2251 22.7307 11.2077 22.5368C11.1904 22.3428 11.1296 22.1553 11.0298 21.988C10.93 21.8208 10.7938 21.6782 10.6314 21.5709C10.251 21.3318 9.80458 21.2195 9.35635 21.2501C8.90811 21.2806 8.48109 21.4525 8.13662 21.7409C8.36685 21.4618 8.48035 21.1046 8.45343 20.7439C8.4265 20.3832 8.26122 20.0468 7.99212 19.805C7.657 19.4949 7.23092 19.3011 6.777 19.2521C6.32307 19.2031 5.86544 19.3016 5.47188 19.533L4.05875 17.1466C3.08125 15.5954 1.93375 13.9804 1.93375 13.9804L6.77875 8.09413C6.77875 8.09413 8.5 9.15663 9.92375 9.96413C10.625 10.3679 11.8362 10.8991 12.75 11.3241C11.305 12.4079 10.0938 13.4491 10.455 14.1716C11.0983 14.6349 11.8678 14.8905 12.6605 14.9042C13.4531 14.9178 14.231 14.6889 14.8899 14.2481C15.7347 13.6849 16.7284 13.3868 17.7438 13.3918C18.4811 13.3918 19.1824 13.5448 19.8178 13.8231C20.995 14.6179 23.1625 16.5729 25.1387 17.8054C27.625 19.6116 28.1137 20.7804 27.5187 21.3754V21.3775Z" fill="#E1C799"/>
</svg>
