<svg width="873" height="814" viewBox="0 0 873 814" fill="none" xmlns="http://www.w3.org/2000/svg">
<g opacity="0.4">
<path d="M-524.654 929.631C-330.258 895.544 -131.658 906.214 62.0464 940.711C146.11 955.69 230.301 965.565 314.877 948.38C422.263 926.553 501.457 861.944 599.77 820.65C759.208 753.681 886.175 916.14 1034.9 940.839C1093.62 950.586 1142.03 925.707 1198.23 914.857C1270.38 900.93 1332.71 921.423 1397.53 952.74" stroke="url(#paint0_linear_204_893)" stroke-miterlimit="10"/>
<path d="M-524.654 895.287C-330.104 855.327 -139.27 878.975 52.4099 922.244C136.73 941.275 221.28 951.689 306.343 930.631C350.502 919.705 392.226 901.879 432.515 880.95C492.82 849.633 546.18 797.309 606.69 769.327C769.332 694.099 885.38 883.797 1030.06 915.293C1095.9 929.631 1139.7 898.134 1200.41 882.668C1272.58 864.304 1335.5 893.928 1397.53 928.99" stroke="url(#paint1_linear_204_893)" stroke-miterlimit="10"/>
<path d="M-524.654 860.072C-333.948 814.751 -159.03 852.582 25.7556 902.931C111.562 926.297 197.317 940.429 284.686 916.191C330.921 903.367 373.952 882.232 415.266 858.148C480.005 820.419 535.851 760.273 601.026 726.057C772.202 636.21 873.719 856.507 1021.65 891.594C1091.18 908.086 1131.91 870.28 1193.83 850.761C1268.77 827.139 1335.38 866.381 1397.5 905.239" stroke="url(#paint2_linear_204_893)" stroke-miterlimit="10"/>
<path d="M-524.654 824.472C-342.534 774.251 -187.863 823.856 -15.2765 880.642C70.3246 908.804 155.695 929.888 244.91 906.804C380.641 871.691 469.113 764.838 583.188 692.842C768.435 575.961 850.986 836.244 1012.6 869.382C1082.57 883.746 1122.14 839.091 1183.98 817.521C1262.31 790.205 1334.61 839.399 1397.53 881.437" stroke="url(#paint3_linear_204_893)" stroke-miterlimit="10"/>
<path d="M-524.654 789.051C-347.942 731.931 -212.262 796.129 -49.9783 859.764C37.6475 894.108 126.273 921.962 219.64 893.569C358.062 851.479 448.277 736.83 562.71 657.088C757.261 521.535 821.128 811.185 988.23 845.247C1059.35 859.738 1103.25 810.185 1164.15 785.998C1250.16 751.834 1329.12 809.98 1397.53 857.763" stroke="url(#paint4_linear_204_893)" stroke-miterlimit="10"/>
<path d="M-524.654 754.271C-445.486 724.082 -368.214 717.132 -286.33 741.498C-210.724 763.992 -145.805 809.416 -74.454 841.553C9.81439 879.513 96.3894 912.805 188.603 882.566C335.073 834.526 423.237 704.076 542.771 617.538C736.322 477.393 792.629 776.124 951.529 816.418C1031.98 836.808 1078.6 777.688 1147 750.654C1239.45 714.105 1325.82 782.331 1397.53 834.013" stroke="url(#paint5_linear_204_893)" stroke-miterlimit="10"/>
<path d="M-524.654 720.696C-453.405 688.404 -382.413 678.35 -307.166 703.588C-233.047 728.442 -172.844 780.765 -104.568 816.981C-25.1437 859.122 56.5874 901.417 147.981 874.434C301.217 829.241 397.403 682.736 516.322 587.938C719.099 426.275 752.75 751.372 918.877 788.793C1004.12 808.004 1057.2 739.445 1130.39 712.719C1228.86 676.786 1323.3 755.296 1397.5 810.236" stroke="url(#paint6_linear_204_893)" stroke-miterlimit="10"/>
<path d="M-524.654 688.815C-359.988 600.327 -261.085 704.999 -126.968 789.589C-50.7984 837.629 31.2146 893.209 124.556 862.277C275.716 812.185 375.157 661.576 489.744 561.418C563.71 496.783 634.523 481.779 697.878 563.547C752.827 634.44 788.118 736.547 885.893 757.092C971.033 774.969 1031.16 704.794 1104.2 676.196C1211.69 634.081 1318.1 726.159 1397.53 786.511" stroke="url(#paint7_linear_204_893)" stroke-miterlimit="10"/>
<path d="M-524.654 659.166C-365.165 558.854 -265.775 663.013 -139.988 757.554C-72.8906 807.979 3.07393 877.821 93.724 854.147C148.903 839.733 197.829 798.772 239.964 762.607C320.951 693.125 388.176 611.151 465.064 537.745C538.773 467.365 611.431 439.664 674.633 532.512C721.739 601.713 757.876 708.616 852.575 723.723C942.61 738.087 1008.5 660.782 1087.47 634.056C1201.36 595.48 1316.18 699.152 1397.53 762.709" stroke="url(#paint8_linear_204_893)" stroke-miterlimit="10"/>
<path d="M-524.654 632.285C-462.478 587.528 -393.869 559.443 -318.11 586.707C-250.654 610.997 -198.217 667.424 -146.369 714.438C-87.935 767.428 -14.1232 861.507 75.5785 843.015C126.068 832.601 170.483 793.923 208.209 760.99C291.478 688.276 364.469 604.046 439.332 523.022C509.402 447.153 587.058 392.572 652.412 498.168C696.417 569.241 730.581 681.659 830.38 685.609C918.954 689.123 985.513 618.332 1065.35 592.222C1187.8 552.184 1312.03 669.86 1397.55 738.984" stroke="url(#paint9_linear_204_893)" stroke-miterlimit="10"/>
<path d="M-524.654 607.612C-460.838 557.853 -389.743 524.818 -309.139 553.493C-241.12 577.68 -184.787 632.824 -134.503 682.403C-82.2196 733.983 -12.0472 835.295 73.5539 818.008C121.455 808.338 163.589 769.583 198.906 738.138C279.663 666.193 351.783 584.169 424.749 504.581C491.564 431.713 570.04 365.283 636.317 470.391C679.681 539.155 712.615 648.906 810.543 650.265C898.349 651.471 971.571 587.683 1053.56 565.83C1181.17 531.794 1305.88 643.366 1397.53 714.644" stroke="url(#paint10_linear_204_893)" stroke-miterlimit="10"/>
<path d="M-524.654 580.116C-454.251 524.689 -379.132 494.885 -293.07 533.358C-221.898 565.188 -159.568 625.411 -104.491 678.735C-55.0785 726.595 6.14935 807.363 84.0617 782.202C131.604 766.838 172.943 725.8 208.414 692.816C279.509 626.719 345.581 555.134 412.652 485.01C476.571 418.144 554.125 353.099 622.836 446.332C671.711 512.66 702.824 618.743 800.394 623.59C887.302 627.899 971.34 570.523 1055.12 555.134C1181.83 531.845 1299.67 619.256 1397.55 686.609" stroke="url(#paint11_linear_204_893)" stroke-miterlimit="10"/>
<path d="M-524.654 549.568C-448.946 491.756 -371.803 466.338 -283.357 511.993C-215.593 546.952 -153.058 603.251 -97.3152 654.625C-45.365 702.511 18.4257 785.023 96.9275 748.5C137.908 729.443 171.636 693.15 203.826 662.448C271.538 597.813 335.585 529.28 401.708 463.055C470.112 394.547 547.615 341.429 618.582 432.508C667.431 495.219 702.619 593.94 795.243 598.044C880.459 601.84 965.112 560.982 1048.28 547.388C1176.65 526.407 1290.63 591.914 1397.55 655.036" stroke="url(#paint12_linear_204_893)" stroke-miterlimit="10"/>
<path d="M-524.654 516.533C-437.336 453.488 -354.042 439.227 -261.059 497.886C-194.244 540.027 -132.478 597.121 -72.6857 648.598C-22.7602 691.585 33.3931 759.067 103.258 719.978C140.676 699.049 171.816 661.73 201.622 631.541C265.08 567.24 326.872 501.374 392.174 438.92C459.835 374.208 537.286 327.502 609.304 409.27C663.074 470.314 700.313 567.676 792.706 576.499C874.129 584.271 962.857 552.415 1042.95 540.001C1170.94 520.175 1283.55 565.445 1397.5 620.718" stroke="url(#paint13_linear_204_893)" stroke-miterlimit="10"/>
<path d="M-524.654 481.625C-430.057 417.94 -343.072 411.117 -248.27 477.752C-176.74 528.024 -112.462 591.556 -44.4424 646.649C2.33067 684.506 54.0758 736.419 112.536 692.919C151.184 664.167 182.734 620.846 214.821 585.554C269.078 525.921 324.693 467.082 384.383 412.861C457.529 346.405 536.851 315.011 610.509 395.112C664.432 453.745 705.746 545.26 794.346 555.186C878.204 564.573 968.88 542.541 1051.94 531.127C1174.09 514.353 1282.81 541.669 1397.53 584.169" stroke="url(#paint14_linear_204_893)" stroke-miterlimit="10"/>
<path d="M-524.654 445.384C-416.807 377.902 -325.132 385.084 -226.127 464.184C-151.008 524.202 -86.9867 594.043 -8.68988 650.676C45.0286 689.508 83.7542 711.438 132.783 657.319C216.103 565.343 283.584 460.516 381.205 381.211C452.864 323.014 531.699 301.315 603.102 369.053C663.432 426.275 704.029 514.122 791.116 534.744C871.515 553.749 972.417 535 1053.25 523.971C1172.55 507.684 1280.22 517.251 1397.55 546.183" stroke="url(#paint15_linear_204_893)" stroke-miterlimit="10"/>
<path d="M-524.654 408.424C-403.89 337.916 -305.551 360.82 -203.727 451.078C-130.787 515.738 -70.1228 590.607 12.6591 643.725C73.4257 682.737 105.411 689.636 146.981 627.515C212.848 529.101 279.15 428.507 375.105 355.921C452.685 297.211 531.289 284.028 607.1 351.715C670.224 408.091 715.152 498.784 804.418 518.739C883.586 536.437 975.979 528.024 1055.79 517.149C1171.66 501.349 1280.5 494.219 1397.55 507.274" stroke="url(#paint16_linear_204_893)" stroke-miterlimit="10"/>
<path d="M-524.654 371.336C-393.023 298.622 -290.046 334.453 -185.71 433.944C-111.872 504.35 -51.0035 590.35 39.9028 640.262C107.384 677.325 131.065 658.063 163.256 594.531C214.462 493.501 279.227 391.393 374.08 325.578C454.376 269.844 535.595 268.125 611.021 332.17C676.811 388.059 724.737 476.393 812.876 501.169C1001.92 554.314 1207.64 474.88 1397.55 468.288" stroke="url(#paint17_linear_204_893)" stroke-miterlimit="10"/>
<path d="M-524.654 334.684C-459.172 299.776 -397.611 279.052 -324.337 304.47C-263.725 325.501 -214.081 369.643 -169.615 414.605C-96.2644 488.832 -33.5501 588.708 64.1736 632.824C137.473 665.911 154.824 621.333 179.556 559.135C219.87 457.669 280.739 353.715 375.849 294.313C583.137 164.812 657.948 426.839 822.871 483.651C1015.47 550.004 1209.2 466.287 1397.55 429.789" stroke="url(#paint18_linear_204_893)" stroke-miterlimit="10"/>
<path d="M-524.654 299.058C-456.353 262.893 -393.408 242.734 -318.802 270.203C-256.215 293.236 -205.624 340.301 -160.286 387.982C-88.9857 462.953 -15.2509 592.736 91.1098 622.591C165.562 643.494 177.3 573.781 196.163 517.662C229.174 419.427 286.07 311.113 381.257 259.149C578.857 151.27 678.374 393.83 827.561 462.389C1023.29 552.339 1212.82 460.106 1397.53 392.445" stroke="url(#paint19_linear_204_893)" stroke-miterlimit="10"/>
<path d="M-524.654 265.073C-455.686 227.524 -393.562 207.133 -317.648 233.731C-254.703 255.789 -203.266 305.008 -158.517 352.971C-85.9102 430.815 -8.07476 578.68 104.821 600.738C181.555 615.742 192.319 539.027 209.08 481.42C237.862 382.596 289.684 273.204 389.15 227.242C587.032 135.804 693.752 368.668 839.709 443.973C915.699 483.164 1014.09 503.247 1098.74 489.602C1206.05 472.315 1304.18 408.68 1397.55 357.05" stroke="url(#paint20_linear_204_893)" stroke-miterlimit="10"/>
<path d="M-524.654 233.269C-451.201 190.769 -380.209 166.274 -298.888 203.003C-237.865 230.576 -189.452 281.257 -145.703 330.452C-80.1437 404.166 2.48439 559.469 112.766 571.113C195.779 579.885 206.261 489.166 224.048 427.917C251.548 333.247 301.063 231.755 400.735 195.232C597.13 123.236 710.692 339.121 852.396 423.48C924.003 466.108 1017.6 495.296 1101.36 484.857C1213.56 470.853 1310.67 389.598 1397.5 324.065" stroke="url(#paint21_linear_204_893)" stroke-miterlimit="10"/>
<path d="M-524.654 204.26C-455.302 160.042 -387.026 129.264 -305.09 162.376C-239.428 188.922 -187.145 245.273 -142.038 297.929C-77.5552 373.208 3.53523 527.767 118.097 530.486C199.777 532.41 214.898 440.382 234.171 378.928C263.978 283.976 311.11 191.872 415.651 165.018C615.839 113.567 726.993 310.959 870.234 405.654C940.355 452.027 1033.88 490.269 1119.3 477.932C1231.01 461.773 1320.77 368.848 1397.53 294.313" stroke="url(#paint22_linear_204_893)" stroke-miterlimit="10"/>
<path d="M-524.654 178.637C-460.992 132.443 -394.869 93.7395 -313.906 120.876C-250.808 142.01 -201.113 193.769 -158.646 242.861C-89.0882 323.244 -19.1208 466.235 100.618 475.366C191.653 482.292 215.308 393.752 241.501 323.706C277.228 228.139 327.025 147.217 436.436 132.418C630.397 106.179 742.165 273.075 876.923 378.132C944.481 430.789 1035.95 481.214 1124.35 472.596C1241.6 461.157 1327.89 352.048 1397.53 268.407" stroke="url(#paint23_linear_204_893)" stroke-miterlimit="10"/>
<path d="M-524.654 158.426C-461.299 114.182 -395.971 77.761 -316.623 103.615C-254.831 123.749 -205.649 173.225 -163.694 220.829C-96.1106 297.468 -24.5798 444.589 91.7249 448.615C181.657 451.719 212.438 372.003 244.679 301.931C286.019 212.134 341.967 129.93 448.072 115.593C635.241 90.3032 752.16 246.222 884.996 345.944C950.171 394.856 1042.1 444.614 1125.81 442.973C1242.83 440.664 1329.51 329.272 1397.53 247.966" stroke="url(#paint24_linear_204_893)" stroke-miterlimit="10"/>
<path d="M-524.654 144.601C-462.299 101.896 -397.919 66.4753 -320.134 90.0208C-260.034 108.206 -211.57 154.527 -170.281 199.874C-103.774 272.947 -32.5505 418.529 79.9867 419.222C168.228 419.76 205.8 349.483 244.32 281.027C291.375 197.412 353.141 117.183 455.478 103.127C635.881 78.3763 757.747 218.213 890.66 311.292C955.194 356.485 1046.13 406.91 1125.99 414.041C1242.42 424.428 1330.51 311.933 1397.5 233.551" stroke="url(#paint25_linear_204_893)" stroke-miterlimit="10"/>
<path d="M-524.654 136.034C-464.836 95.1248 -400.892 59.7552 -326.183 78.7352C-262.495 94.8939 -211.903 143.088 -168.538 189.743C-102.62 260.661 -36.523 392.393 73.6051 387.494C156.925 383.801 199.393 320.5 242.911 258.199C296.347 181.663 360.856 109.898 458.708 95.9968C636.394 70.7329 760.874 191.615 899.117 277.846C962.985 317.704 1044.02 364.975 1117.61 384.032C1236.88 414.913 1327.71 303.059 1397.53 224.061" stroke="url(#paint26_linear_204_893)" stroke-miterlimit="10"/>
<path d="M-524.654 131.623C-466.476 91.3287 -403.89 55.1897 -330.412 70.1428C-269.235 82.6081 -219.515 125.493 -176.893 168.557C-110.053 236.064 -47.8255 357.306 58.8683 352.561C139.805 348.97 188.475 295.672 237.99 238.244C297.321 169.455 365.802 104.102 459.886 90.4053C630.064 65.6287 760.464 162.273 900.322 239.168C969.726 277.333 1042.72 323.988 1115.58 354.869C1232.88 404.602 1325.1 296.98 1397.5 218.469" stroke="url(#paint27_linear_204_893)" stroke-miterlimit="10"/>
<path d="M-524.654 130.264C-402.25 43.4174 -296.376 43.8534 -185.223 146.833C-116.973 210.057 -58.9741 318.577 43.9779 314.883C122.275 312.062 176.711 268.869 231.89 218.162C296.911 158.426 368.544 100.64 458.887 87.1998C621.042 63.0643 758.337 132.957 899.451 199.259C977.132 235.757 1039.97 281.54 1112.33 325.938C1226.58 396.036 1319.84 295.954 1397.55 215.802" stroke="url(#paint28_linear_204_893)" stroke-miterlimit="10"/>
<path d="M-524.654 130.853C-410.733 47.3409 -305.885 31.1309 -193.065 124.082C-123.021 181.791 -69.0719 276.332 29.7025 274.383C194.164 271.151 295.45 109.949 456.196 85.6344C610.175 62.3454 754.826 103.64 896.452 158.348C983.027 191.794 1037.54 239.167 1107.76 296.954C1217.92 387.597 1311.54 298.929 1397.53 214.878" stroke="url(#paint29_linear_204_893)" stroke-miterlimit="10"/>
<path d="M-524.654 132.289C-420.472 52.8297 -316.444 19.1786 -202.651 97.8944C-132.299 146.55 -80.7075 227.856 10.1988 230.986C173.661 236.654 295.297 108.513 452.172 84.0185C595.311 61.6785 748.29 74.0668 886.38 115.515C984.693 145.037 1034.9 198.719 1104.2 270.382C1130.09 297.159 1159.2 325.039 1198.08 329.246C1275.43 337.582 1347.78 260.866 1397.53 214.801" stroke="url(#paint30_linear_204_893)" stroke-miterlimit="10"/>
<path d="M-524.654 133.469C-427.725 56.5744 -324.184 7.71359 -207.853 72.0918C-135.887 111.924 -85.8334 179.534 -0.00163079 184.536C159.693 193.846 294.22 108.205 447.841 84.3262C585.648 62.9096 741.806 45.0581 879.434 74.6054C985.308 97.3301 1032.93 160.708 1097.1 241.707C1121.68 272.742 1149.51 308.445 1190.14 318.191C1268.61 337.017 1346.04 259.635 1397.5 214.519" stroke="url(#paint31_linear_204_893)" stroke-miterlimit="10"/>
<path d="M-524.654 133.264C-430.057 55.292 -324.927 -5.05934 -203.138 46.9562C-136.733 75.3237 -87.3198 127.314 -13.4312 134.547C145.367 150.115 289.761 107.872 444.817 85.0958C526.522 73.0922 607.023 61.1912 688.037 44.853C751.007 32.1569 812.209 25.5652 876.231 34.7474C986.846 50.5983 1033.57 129.699 1090.93 215.879C1113.89 250.376 1141.49 293.209 1183.22 306.931C1263.18 333.247 1342.94 258.353 1397.53 212.878" stroke="url(#paint32_linear_204_893)" stroke-miterlimit="10"/>
<path d="M-524.654 130.596C-433.543 53.0861 -328.361 -18.7302 -203.83 14.4848C-137.809 32.1055 -84.5263 73.0921 -15.9173 81.7613C140.599 101.511 285.609 105.999 441.997 84.198C524.805 72.6561 602.435 55.651 681.424 28.2582C742.242 7.17493 800.599 -10.1123 865.8 -5.49552C981.899 2.71207 1029.06 96.1503 1081.47 186.895C1103.79 225.548 1130.75 275.281 1174.01 294.081C1255.52 329.502 1339.5 255.07 1397.58 208.979" stroke="url(#paint33_linear_204_893)" stroke-miterlimit="10"/>
<path d="M-524.654 124.365C-434.824 46.1361 -330.053 -33.7596 -204.035 -21.6534C-136.374 -15.1643 -74.454 16.8453 -7.28023 26.7457C146.264 49.3935 281.329 101.076 439.05 81.8135C522.498 71.6053 597.489 49.8039 672.685 12.5107C729.325 -15.5746 783.3 -43.9934 848.193 -44.8142C974.339 -46.3531 1021.98 63.9107 1072.78 161.171C1094.72 203.183 1121.09 257.84 1165.79 280.36C1248.72 322.167 1336.17 248.53 1397.53 201.67" stroke="url(#paint34_linear_204_893)" stroke-miterlimit="10"/>
<path d="M-524.654 113.463C-432.979 32.6957 -327.926 -52.4067 -200.677 -60.8194C-132.068 -65.3593 -59.8454 -44.9429 6.9183 -31.0926C157.079 0.0449107 282.098 94.7655 441.562 77.5296C523.549 68.6808 595.951 41.9805 664.688 -3.05858C720.15 -39.4028 770.972 -78.3632 839.837 -82.39C968.726 -89.9051 1015.93 38.1589 1062.96 135.342C1085.31 181.484 1110.97 237.295 1157.05 264.611C1239.8 313.652 1335.22 236.167 1397.53 189.999" stroke="url(#paint35_linear_204_893)" stroke-miterlimit="10"/>
<path d="M-524.654 96.7405C-367.779 -41.1468 -202.446 -147.461 11.1214 -95.8042C163.153 -59.024 280.252 84.0188 445.201 70.5276C528.777 63.6794 599.18 30.1053 662.766 -23.0645C712.563 -64.6923 756.927 -110.347 824.87 -117.708C954.451 -131.738 1001.94 -0.570575 1046.36 96.4841C1070.6 149.449 1096.85 215.699 1149.46 247.247C1234.29 298.108 1332.81 219.957 1397.5 172.866" stroke="url(#paint36_linear_204_893)" stroke-miterlimit="10"/>
<path d="M-524.654 74.0159C-373.699 -55.0483 -179.508 -197.809 31.6759 -138.612C179.914 -97.0609 291.914 61.1659 454.838 52.8044C536.312 48.6237 605.536 9.56075 663.048 -45.7891C708.668 -89.6741 749.444 -139.176 816.541 -146.614C940.842 -160.439 991.433 -30.9642 1035.23 61.089C1061.45 116.157 1088.93 183.561 1142.85 217.443C1229.19 271.69 1328.92 197.617 1397.5 149.808" stroke="url(#paint37_linear_204_893)" stroke-miterlimit="10"/>
<path d="M-524.654 50.265C-373.161 -73.3104 -174.279 -209.761 33.5725 -158.515C186.347 -120.863 307.368 36.1582 472.778 25.4114C547.743 20.5381 610.56 -15.9087 663.202 -67.3086C705.208 -108.321 742.037 -155.053 803.367 -165.081C925.695 -185.087 986.128 -52.3555 1033.59 35.6708C1060.86 86.1988 1090.44 144.755 1139.93 177.354C1226.48 234.371 1323.87 171.25 1397.53 123.8" stroke="url(#paint38_linear_204_893)" stroke-miterlimit="10"/>
<path d="M-524.654 26.5144C-370.29 -92.7008 -161.721 -224.535 44.593 -172.007C194.6 -133.816 323.002 9.50929 484.875 0.711791C553.894 -3.03292 614.327 -39.8388 662.587 -86.6733C701.261 -124.197 735.681 -168.903 791.245 -180.676C911.65 -206.171 980.9 -72.4126 1033.34 11.0995C1064.86 61.294 1097.82 116.541 1151.95 144.934C1237.6 189.845 1322.79 140.266 1397.53 95.8684" stroke="url(#paint39_linear_204_893)" stroke-miterlimit="10"/>
<path d="M-524.654 2.76399C-365.344 -112.732 -151.7 -234.025 54.409 -182.933C202.981 -146.101 336.841 -13.3947 496.229 -24.2954C560.429 -28.6813 615.301 -60.973 661.177 -104.14C699.749 -140.433 734.4 -184.677 789.502 -194.859C903.987 -216.045 978.568 -90.4434 1034.44 -12.6252C1066.5 32.0291 1100.49 77.5812 1149.36 104.641C1234.4 151.68 1320.1 108.616 1397.53 66.3471" stroke="url(#paint40_linear_204_893)" stroke-miterlimit="10"/>
<path d="M-524.654 -20.9865C-364.242 -129.096 -157.262 -233.46 43.8754 -195.526C199.546 -166.158 340.224 -35.9653 503.712 -47.4303C565.709 -51.7906 618.505 -83.4411 663.663 -124.12C700.595 -157.412 734.143 -195.782 785.324 -205.452C891.275 -225.484 970.161 -117.297 1028.39 -46.6095C1066.5 -0.313651 1108.15 50.4964 1165.17 74.1702C1245.8 107.642 1325.18 71.8874 1397.55 35.6202" stroke="url(#paint41_linear_204_893)" stroke-miterlimit="10"/>
<path d="M-524.654 -44.7381C-360.244 -146.461 -148.983 -239.796 50.2826 -201.657C202.186 -172.571 349.784 -57.0494 508.659 -68.7709C624.041 -77.2862 674.402 -190.474 778.405 -213.404C882.971 -236.436 968.111 -134.508 1032.39 -68.54C1071.04 -28.8615 1111.38 12.8176 1163.56 34.3625C1244.34 67.7058 1322.74 38.1329 1397.5 4.02012" stroke="url(#paint42_linear_204_893)" stroke-miterlimit="10"/>
<path d="M-524.654 -68.4881C-355.913 -162.901 -148.65 -239.539 48.7449 -207.76C201.879 -183.112 352.193 -78.3885 510.76 -90.2638C619.684 -98.4201 677.913 -200.117 778.456 -219.841C876.487 -239.052 960.832 -158.13 1028.16 -99.01C1069.73 -62.4863 1112.5 -24.1671 1164.87 -3.87902C1245.06 27.2072 1321.77 3.35392 1397.55 -28.0144" stroke="url(#paint43_linear_204_893)" stroke-miterlimit="10"/>
</g>
<defs>
<linearGradient id="paint0_linear_204_893" x1="436.436" y1="804.582" x2="436.436" y2="957.455" gradientUnits="userSpaceOnUse">
<stop stop-color="#F2CB6F"/>
<stop offset="1" stop-color="#293543"/>
</linearGradient>
<linearGradient id="paint1_linear_204_893" x1="436.436" y1="751.824" x2="436.436" y2="942.264" gradientUnits="userSpaceOnUse">
<stop stop-color="#F2CB6F"/>
<stop offset="1" stop-color="#293543"/>
</linearGradient>
<linearGradient id="paint2_linear_204_893" x1="436.423" y1="704.686" x2="436.423" y2="928.813" gradientUnits="userSpaceOnUse">
<stop stop-color="#F2CB6F"/>
<stop offset="1" stop-color="#293543"/>
</linearGradient>
<linearGradient id="paint3_linear_204_893" x1="436.436" y1="662.861" x2="436.436" y2="916.656" gradientUnits="userSpaceOnUse">
<stop stop-color="#F2CB6F"/>
<stop offset="1" stop-color="#293543"/>
</linearGradient>
<linearGradient id="paint4_linear_204_893" x1="436.436" y1="621.197" x2="436.436" y2="905.293" gradientUnits="userSpaceOnUse">
<stop stop-color="#F2CB6F"/>
<stop offset="1" stop-color="#293543"/>
</linearGradient>
<linearGradient id="paint5_linear_204_893" x1="436.436" y1="580.397" x2="436.436" y2="894.325" gradientUnits="userSpaceOnUse">
<stop stop-color="#F2CB6F"/>
<stop offset="1" stop-color="#293543"/>
</linearGradient>
<linearGradient id="paint6_linear_204_893" x1="436.423" y1="543.146" x2="436.423" y2="882.923" gradientUnits="userSpaceOnUse">
<stop stop-color="#F2CB6F"/>
<stop offset="1" stop-color="#293543"/>
</linearGradient>
<linearGradient id="paint7_linear_204_893" x1="436.436" y1="507.476" x2="436.436" y2="871.207" gradientUnits="userSpaceOnUse">
<stop stop-color="#F2CB6F"/>
<stop offset="1" stop-color="#293543"/>
</linearGradient>
<linearGradient id="paint8_linear_204_893" x1="436.436" y1="473.305" x2="436.436" y2="858.902" gradientUnits="userSpaceOnUse">
<stop stop-color="#F2CB6F"/>
<stop offset="1" stop-color="#293543"/>
</linearGradient>
<linearGradient id="paint9_linear_204_893" x1="436.449" y1="439.448" x2="436.449" y2="845.386" gradientUnits="userSpaceOnUse">
<stop stop-color="#F2CB6F"/>
<stop offset="1" stop-color="#293543"/>
</linearGradient>
<linearGradient id="paint10_linear_204_893" x1="436.436" y1="415.805" x2="436.436" y2="819.968" gradientUnits="userSpaceOnUse">
<stop stop-color="#F2CB6F"/>
<stop offset="1" stop-color="#293543"/>
</linearGradient>
<linearGradient id="paint11_linear_204_893" x1="436.449" y1="399.878" x2="436.449" y2="786.949" gradientUnits="userSpaceOnUse">
<stop stop-color="#F2CB6F"/>
<stop offset="1" stop-color="#293543"/>
</linearGradient>
<linearGradient id="paint12_linear_204_893" x1="436.449" y1="384.076" x2="436.449" y2="757.563" gradientUnits="userSpaceOnUse">
<stop stop-color="#F2CB6F"/>
<stop offset="1" stop-color="#293543"/>
</linearGradient>
<linearGradient id="paint13_linear_204_893" x1="436.423" y1="365.647" x2="436.423" y2="731.718" gradientUnits="userSpaceOnUse">
<stop stop-color="#F2CB6F"/>
<stop offset="1" stop-color="#293543"/>
</linearGradient>
<linearGradient id="paint14_linear_204_893" x1="436.436" y1="347.525" x2="436.436" y2="709.442" gradientUnits="userSpaceOnUse">
<stop stop-color="#F2CB6F"/>
<stop offset="1" stop-color="#293543"/>
</linearGradient>
<linearGradient id="paint15_linear_204_893" x1="436.449" y1="327.068" x2="436.449" y2="689.652" gradientUnits="userSpaceOnUse">
<stop stop-color="#F2CB6F"/>
<stop offset="1" stop-color="#293543"/>
</linearGradient>
<linearGradient id="paint16_linear_204_893" x1="436.449" y1="306.196" x2="436.449" y2="673.626" gradientUnits="userSpaceOnUse">
<stop stop-color="#F2CB6F"/>
<stop offset="1" stop-color="#293543"/>
</linearGradient>
<linearGradient id="paint17_linear_204_893" x1="436.449" y1="283.938" x2="436.449" y2="659.007" gradientUnits="userSpaceOnUse">
<stop stop-color="#F2CB6F"/>
<stop offset="1" stop-color="#293543"/>
</linearGradient>
<linearGradient id="paint18_linear_204_893" x1="436.449" y1="258.793" x2="436.449" y2="644.063" gradientUnits="userSpaceOnUse">
<stop stop-color="#F2CB6F"/>
<stop offset="1" stop-color="#293543"/>
</linearGradient>
<linearGradient id="paint19_linear_204_893" x1="436.436" y1="231.894" x2="436.436" y2="626.386" gradientUnits="userSpaceOnUse">
<stop stop-color="#F2CB6F"/>
<stop offset="1" stop-color="#293543"/>
</linearGradient>
<linearGradient id="paint20_linear_204_893" x1="436.449" y1="206.284" x2="436.449" y2="602.644" gradientUnits="userSpaceOnUse">
<stop stop-color="#F2CB6F"/>
<stop offset="1" stop-color="#293543"/>
</linearGradient>
<linearGradient id="paint21_linear_204_893" x1="436.423" y1="180.77" x2="436.423" y2="571.705" gradientUnits="userSpaceOnUse">
<stop stop-color="#F2CB6F"/>
<stop offset="1" stop-color="#293543"/>
</linearGradient>
<linearGradient id="paint22_linear_204_893" x1="436.436" y1="148.456" x2="436.436" y2="530.516" gradientUnits="userSpaceOnUse">
<stop stop-color="#F2CB6F"/>
<stop offset="1" stop-color="#293543"/>
</linearGradient>
<linearGradient id="paint23_linear_204_893" x1="436.436" y1="111.891" x2="436.436" y2="475.749" gradientUnits="userSpaceOnUse">
<stop stop-color="#F2CB6F"/>
<stop offset="1" stop-color="#293543"/>
</linearGradient>
<linearGradient id="paint24_linear_204_893" x1="436.436" y1="94.9961" x2="436.436" y2="448.703" gradientUnits="userSpaceOnUse">
<stop stop-color="#F2CB6F"/>
<stop offset="1" stop-color="#293543"/>
</linearGradient>
<linearGradient id="paint25_linear_204_893" x1="436.423" y1="82.4922" x2="436.423" y2="419.225" gradientUnits="userSpaceOnUse">
<stop stop-color="#F2CB6F"/>
<stop offset="1" stop-color="#293543"/>
</linearGradient>
<linearGradient id="paint26_linear_204_893" x1="436.436" y1="73.4678" x2="436.436" y2="389.291" gradientUnits="userSpaceOnUse">
<stop stop-color="#F2CB6F"/>
<stop offset="1" stop-color="#293543"/>
</linearGradient>
<linearGradient id="paint27_linear_204_893" x1="436.423" y1="66.6963" x2="436.423" y2="367.522" gradientUnits="userSpaceOnUse">
<stop stop-color="#F2CB6F"/>
<stop offset="1" stop-color="#293543"/>
</linearGradient>
<linearGradient id="paint28_linear_204_893" x1="436.449" y1="67.2207" x2="436.449" y2="349.632" gradientUnits="userSpaceOnUse">
<stop stop-color="#F2CB6F"/>
<stop offset="1" stop-color="#293543"/>
</linearGradient>
<linearGradient id="paint29_linear_204_893" x1="436.436" y1="61.0146" x2="436.436" y2="335.085" gradientUnits="userSpaceOnUse">
<stop stop-color="#F2CB6F"/>
<stop offset="1" stop-color="#293543"/>
</linearGradient>
<linearGradient id="paint30_linear_204_893" x1="436.436" y1="53.1094" x2="436.436" y2="329.873" gradientUnits="userSpaceOnUse">
<stop stop-color="#F2CB6F"/>
<stop offset="1" stop-color="#293543"/>
</linearGradient>
<linearGradient id="paint31_linear_204_893" x1="436.423" y1="42.2803" x2="436.423" y2="321.088" gradientUnits="userSpaceOnUse">
<stop stop-color="#F2CB6F"/>
<stop offset="1" stop-color="#293543"/>
</linearGradient>
<linearGradient id="paint32_linear_204_893" x1="436.436" y1="27.5068" x2="436.436" y2="312.394" gradientUnits="userSpaceOnUse">
<stop stop-color="#F2CB6F"/>
<stop offset="1" stop-color="#293543"/>
</linearGradient>
<linearGradient id="paint33_linear_204_893" x1="436.461" y1="-6.24805" x2="436.461" y2="303.338" gradientUnits="userSpaceOnUse">
<stop stop-color="#F2CB6F"/>
<stop offset="1" stop-color="#293543"/>
</linearGradient>
<linearGradient id="paint34_linear_204_893" x1="436.436" y1="-44.8301" x2="436.436" y2="292.744" gradientUnits="userSpaceOnUse">
<stop stop-color="#F2CB6F"/>
<stop offset="1" stop-color="#293543"/>
</linearGradient>
<linearGradient id="paint35_linear_204_893" x1="436.436" y1="-82.7061" x2="436.436" y2="280.295" gradientUnits="userSpaceOnUse">
<stop stop-color="#F2CB6F"/>
<stop offset="1" stop-color="#293543"/>
</linearGradient>
<linearGradient id="paint36_linear_204_893" x1="436.423" y1="-118.746" x2="436.423" y2="263.815" gradientUnits="userSpaceOnUse">
<stop stop-color="#F2CB6F"/>
<stop offset="1" stop-color="#293543"/>
</linearGradient>
<linearGradient id="paint37_linear_204_893" x1="436.423" y1="-152.399" x2="436.423" y2="236.484" gradientUnits="userSpaceOnUse">
<stop stop-color="#F2CB6F"/>
<stop offset="1" stop-color="#293543"/>
</linearGradient>
<linearGradient id="paint38_linear_204_893" x1="436.436" y1="-169.585" x2="436.436" y2="199.975" gradientUnits="userSpaceOnUse">
<stop stop-color="#F2CB6F"/>
<stop offset="1" stop-color="#293543"/>
</linearGradient>
<linearGradient id="paint39_linear_204_893" x1="436.436" y1="-183.878" x2="436.436" y2="162.624" gradientUnits="userSpaceOnUse">
<stop stop-color="#F2CB6F"/>
<stop offset="1" stop-color="#293543"/>
</linearGradient>
<linearGradient id="paint40_linear_204_893" x1="436.436" y1="-197.231" x2="436.436" y2="125.119" gradientUnits="userSpaceOnUse">
<stop stop-color="#F2CB6F"/>
<stop offset="1" stop-color="#293543"/>
</linearGradient>
<linearGradient id="paint41_linear_204_893" x1="436.449" y1="-207.885" x2="436.449" y2="87.5128" gradientUnits="userSpaceOnUse">
<stop stop-color="#F2CB6F"/>
<stop offset="1" stop-color="#293543"/>
</linearGradient>
<linearGradient id="paint42_linear_204_893" x1="436.423" y1="-216.727" x2="436.423" y2="48.9722" gradientUnits="userSpaceOnUse">
<stop stop-color="#F2CB6F"/>
<stop offset="1" stop-color="#293543"/>
</linearGradient>
<linearGradient id="paint43_linear_204_893" x1="436.449" y1="-222.724" x2="436.449" y2="10.6519" gradientUnits="userSpaceOnUse">
<stop stop-color="#F2CB6F"/>
<stop offset="1" stop-color="#293543"/>
</linearGradient>
</defs>
</svg>
